<?xml version="1.0" standalone="no"?>
<!DOCTYPE svg PUBLIC "-//W3C//DTD SVG 20010904//EN"
 "http://www.w3.org/TR/2001/REC-SVG-20010904/DTD/svg10.dtd">
<svg version="1.0" xmlns="http://www.w3.org/2000/svg"
 width="628.000000pt" height="628.000000pt" viewBox="0 0 628.000000 628.000000"
 preserveAspectRatio="xMidYMid meet">
<metadata>
Created by potrace 1.11, written by Peter Selinger 2001-2013
</metadata>
<g transform="translate(0.000000,628.000000) scale(0.100000,-0.100000)"
fill="#000000" stroke="none">
<path d="M2608 5484 c-2 -1 -21 -5 -43 -8 -76 -11 -100 -19 -195 -56 -105 -41
-177 -67 -212 -74 -13 -3 -42 -10 -66 -16 -24 -6 -47 -8 -52 -5 -5 3 -11 2
-14 -3 -2 -4 -17 -9 -33 -10 -15 -1 -62 -6 -103 -11 -41 -5 -158 -8 -260 -6
-169 2 -224 6 -317 20 -18 3 -50 8 -70 11 -65 9 -87 13 -138 24 -27 6 -60 12
-72 14 -12 2 -38 10 -58 16 -20 7 -39 9 -42 6 -3 -3 -6 -821 -6 -1818 l0
-1812 -26 -61 c-76 -176 -210 -421 -241 -440 -4 -3 -7 613 -5 1367 2 755 4
1576 5 1824 l1 450 42 57 c62 84 110 179 95 188 -7 4 -15 6 -18 4 -3 -2 -57
-6 -120 -10 -222 -11 -244 -17 -284 -79 l-26 -40 0 -2057 c0 -2262 -5 -2097
58 -2144 22 -16 41 -20 107 -18 79 1 243 9 380 17 123 8 328 19 570 31 55 3
141 7 190 10 50 3 133 8 185 11 52 2 129 6 170 8 41 2 122 7 180 10 426 25
490 27 529 17 124 -33 646 -35 806 -4 50 9 180 9 350 -1 72 -4 162 -9 200 -11
107 -5 301 -16 390 -21 44 -3 121 -7 170 -9 179 -8 278 -16 286 -21 5 -3 9 0
9 6 0 6 5 8 11 4 6 -3 41 -8 78 -9 36 -2 116 -6 176 -10 329 -18 485 -27 560
-30 79 -3 119 11 150 53 20 27 20 45 23 2082 2 1394 0 2067 -7 2091 -6 19 -27
50 -46 68 -38 34 -42 35 -236 45 -47 3 -90 6 -95 7 -5 1 -26 1 -46 0 l-37 -1
41 -72 c22 -40 57 -96 77 -124 l36 -50 3 -1120 c2 -615 4 -1435 6 -1822 1
-386 -1 -702 -4 -702 -8 0 -81 112 -114 174 -14 27 -31 55 -37 62 -6 8 -8 14
-4 14 4 0 1 10 -7 22 -8 13 -36 69 -61 126 l-47 104 0 1819 c0 1000 -3 1819
-8 1819 -4 0 -23 -4 -42 -10 -51 -15 -218 -48 -275 -56 -27 -3 -58 -8 -67 -9
-69 -13 -181 -20 -348 -20 -193 1 -283 7 -370 25 -25 5 -56 12 -70 14 -62 10
-164 44 -315 106 -79 33 -157 44 -305 43 -162 -1 -241 -18 -353 -74 l-58 -30
-72 35 c-66 31 -109 45 -192 62 -30 6 -262 13 -267 8z m252 -339 c19 -4 53
-14 75 -24 l40 -17 0 -1638 c0 -901 -3 -1640 -7 -1642 -4 -3 -36 3 -70 12 -65
16 -222 22 -313 10 -76 -10 -152 -32 -242 -70 -46 -20 -83 -33 -83 -30 0 2
-12 -2 -27 -10 -24 -12 -106 -32 -208 -51 -188 -36 -543 -35 -740 1 l-30 6 0
1649 -1 1649 57 -4 c32 -2 61 -6 66 -8 38 -20 500 -14 643 7 183 29 299 60
450 122 47 19 98 37 114 39 16 2 30 5 32 7 7 6 206 0 244 -8z m860 -5 c38 -13
56 -20 110 -43 73 -32 219 -76 300 -90 119 -22 150 -26 235 -34 44 -4 154 -7
245 -7 152 0 213 4 358 19 39 4 52 3 53 -7 3 -79 0 -3281 -4 -3284 -8 -8 -76
-17 -227 -30 -122 -11 -386 -5 -465 10 -11 2 -42 7 -69 10 -78 11 -215 47
-271 71 -157 69 -254 93 -391 99 -63 2 -207 -13 -265 -28 l-26 -7 0 1645 0
1645 26 9 c47 18 64 23 100 28 20 3 38 8 40 10 8 8 218 -5 251 -16z"/>
</g>
</svg>
